<?xml version="1.0" encoding="UTF-8"?>
<svg xmlns="http://www.w3.org/2000/svg" xmlns:xlink="http://www.w3.org/1999/xlink" width="23pt" height="20pt" viewBox="0 0 23 20" version="1.1">
<g id="surface1">
<path style=" stroke:none;fill-rule:nonzero;fill:rgb(0%,0%,0%);fill-opacity:1;" d="M 1.714844 12.71875 L 5.148438 12.71875 C 5.335938 12.71875 5.527344 12.648438 5.648438 12.476562 C 5.769531 12.328125 5.835938 12.128906 5.816406 11.9375 L 5.71875 11.195312 C 5.625 10.535156 5.21875 10.019531 4.671875 9.75 C 4.957031 9.429688 5.125 9.007812 5.125 8.542969 C 5.125 7.585938 4.359375 6.800781 3.429688 6.800781 C 2.5 6.800781 1.742188 7.585938 1.742188 8.542969 C 1.742188 9.007812 1.90625 9.429688 2.191406 9.722656 C 1.648438 9.996094 1.214844 10.507812 1.144531 11.171875 L 1.050781 11.90625 C 1.027344 12.105469 1.074219 12.300781 1.214844 12.449219 C 1.339844 12.621094 1.527344 12.71875 1.714844 12.71875 Z M 3.429688 7.558594 C 3.980469 7.558594 4.410156 8.03125 4.410156 8.570312 C 4.410156 9.136719 3.957031 9.574219 3.429688 9.574219 C 2.90625 9.574219 2.457031 9.105469 2.457031 8.570312 C 2.457031 8.003906 2.886719 7.558594 3.429688 7.558594 Z M 1.859375 11.320312 C 1.929688 10.753906 2.410156 10.3125 2.980469 10.3125 L 3.910156 10.3125 C 4.457031 10.3125 4.933594 10.730469 5.027344 11.320312 L 5.171875 12.007812 L 1.765625 12.035156 Z M 1.859375 11.320312 "/>
<path style=" stroke:none;fill-rule:nonzero;fill:rgb(0%,0%,0%);fill-opacity:1;" d="M 6.265625 13.777344 L 0.621094 13.777344 C 0.429688 13.777344 0.265625 13.949219 0.265625 14.144531 L 0.265625 19.328125 C 0.265625 19.523438 0.429688 19.695312 0.621094 19.695312 L 6.265625 19.695312 C 6.457031 19.695312 6.621094 19.523438 6.621094 19.328125 L 6.621094 14.121094 C 6.601562 13.925781 6.457031 13.777344 6.265625 13.777344 Z M 5.910156 18.957031 L 0.953125 18.957031 L 0.953125 14.492188 L 5.886719 14.492188 L 5.886719 18.957031 Z M 5.910156 18.957031 "/>
<path style=" stroke:none;fill-rule:nonzero;fill:rgb(0%,0%,0%);fill-opacity:1;" d="M 9.863281 9.5 L 13.296875 9.5 C 13.484375 9.5 13.675781 9.429688 13.792969 9.253906 C 13.914062 9.105469 13.984375 8.910156 13.964844 8.714844 L 13.867188 7.980469 C 13.769531 7.316406 13.367188 6.800781 12.816406 6.53125 C 13.105469 6.210938 13.269531 5.792969 13.269531 5.328125 C 13.269531 4.371094 12.507812 3.582031 11.578125 3.582031 C 10.648438 3.582031 9.890625 4.371094 9.890625 5.328125 C 9.890625 5.792969 10.054688 6.210938 10.339844 6.503906 C 9.792969 6.777344 9.363281 7.292969 9.292969 7.953125 L 9.195312 8.691406 C 9.175781 8.890625 9.222656 9.085938 9.363281 9.234375 C 9.484375 9.402344 9.671875 9.5 9.863281 9.5 Z M 11.578125 4.34375 C 12.128906 4.34375 12.554688 4.808594 12.554688 5.351562 C 12.554688 5.917969 12.105469 6.355469 11.578125 6.355469 C 11.054688 6.355469 10.601562 5.890625 10.601562 5.351562 C 10.601562 4.789062 11.03125 4.34375 11.578125 4.34375 Z M 10.007812 8.101562 C 10.078125 7.535156 10.554688 7.09375 11.128906 7.09375 L 12.058594 7.09375 C 12.605469 7.09375 13.082031 7.511719 13.175781 8.101562 L 13.316406 8.789062 L 9.910156 8.816406 Z M 10.007812 8.101562 "/>
<path style=" stroke:none;fill-rule:nonzero;fill:rgb(0%,0%,0%);fill-opacity:1;" d="M 14.390625 10.558594 L 8.769531 10.558594 C 8.578125 10.558594 8.410156 10.730469 8.410156 10.929688 L 8.410156 19.351562 C 8.410156 19.550781 8.578125 19.71875 8.769531 19.71875 L 14.414062 19.71875 C 14.605469 19.71875 14.769531 19.550781 14.769531 19.351562 L 14.769531 10.902344 C 14.75 10.707031 14.605469 10.558594 14.390625 10.558594 Z M 14.058594 18.957031 L 9.101562 18.957031 L 9.101562 11.269531 L 14.03125 11.269531 L 14.03125 18.957031 Z M 14.058594 18.957031 "/>
<path style=" stroke:none;fill-rule:nonzero;fill:rgb(0%,0%,0%);fill-opacity:1;" d="M 18.011719 6.285156 L 21.445312 6.285156 C 21.632812 6.285156 21.820312 6.210938 21.941406 6.039062 C 22.0625 5.890625 22.132812 5.695312 22.109375 5.5 L 22.015625 4.761719 C 21.917969 4.097656 21.511719 3.582031 20.964844 3.3125 C 21.253906 2.992188 21.417969 2.574219 21.417969 2.109375 C 21.417969 1.148438 20.65625 0.367188 19.726562 0.367188 C 18.796875 0.367188 18.035156 1.148438 18.035156 2.109375 C 18.035156 2.574219 18.203125 2.992188 18.488281 3.289062 C 17.941406 3.558594 17.511719 4.078125 17.441406 4.738281 L 17.34375 5.476562 C 17.324219 5.671875 17.371094 5.867188 17.511719 6.015625 C 17.632812 6.1875 17.820312 6.285156 18.011719 6.285156 Z M 19.726562 1.128906 C 20.273438 1.128906 20.703125 1.59375 20.703125 2.136719 C 20.703125 2.699219 20.253906 3.140625 19.726562 3.140625 C 19.179688 3.140625 18.75 2.675781 18.75 2.136719 C 18.75 1.570312 19.179688 1.128906 19.726562 1.128906 Z M 18.152344 4.886719 C 18.226562 4.320312 18.703125 3.878906 19.277344 3.878906 L 20.207031 3.878906 C 20.75 3.878906 21.230469 4.292969 21.324219 4.886719 L 21.464844 5.574219 L 18.0625 5.625 Z M 18.152344 4.886719 "/>
<path style=" stroke:none;fill-rule:nonzero;fill:rgb(0%,0%,0%);fill-opacity:1;" d="M 22.539062 7.34375 L 16.890625 7.34375 C 16.703125 7.34375 16.535156 7.511719 16.535156 7.707031 L 16.535156 19.351562 C 16.535156 19.550781 16.703125 19.71875 16.890625 19.71875 L 22.539062 19.71875 C 22.730469 19.71875 22.894531 19.550781 22.894531 19.351562 L 22.894531 7.683594 C 22.894531 7.488281 22.730469 7.34375 22.539062 7.34375 Z M 22.207031 18.957031 L 17.25 18.957031 L 17.25 8.054688 L 22.183594 8.054688 L 22.183594 18.957031 Z M 22.207031 18.957031 "/>
</g>
</svg>
