<svg width="461" height="384" xmlns="http://www.w3.org/2000/svg" xmlns:xlink="http://www.w3.org/1999/xlink" overflow="hidden"><defs><clipPath id="clip0"><rect x="0" y="0" width="461" height="384"/></clipPath></defs><g clip-path="url(#clip0)"><path d="M24997.5 11377.9 24997.5 11368.4C24997.5 11355.1 24973.8 11349.4 24951.5 11349.4 24929.2 11349.4 24905.5 11355.6 24905.5 11368.4L24905.5 11377.9C24905.5 11386.4 24908.9 11394.9 24915 11401.1L24938.7 11424.3C24940.1 11425.7 24940.6 11427.2 24940.6 11429.1L24940.6 11459.4C24940.6 11461.3 24941.6 11462.7 24943.5 11463.2L24957.2 11467.5C24959.6 11467.9 24961.9 11466.5 24961.9 11463.7L24961.9 11429.5C24961.9 11427.6 24962.9 11426.2 24963.8 11424.8L24988 11401.1C24994.2 11394.9 24997.5 11386.4 24997.5 11377.9ZM24951.5 11377.4C24928.8 11377.4 24916.4 11371.2 24916 11368.9L24916 11368.9C24916.4 11366.5 24928.8 11360.3 24951.5 11360.3 24974.3 11360.3 24986.1 11366.5 24987.1 11368.9 24986.1 11371.2 24974.3 11377.4 24951.5 11377.4Z" transform="matrix(1.00031 0 0 1 -6.60089 -43.2)"/><path d="M24975.2 11426.2C24972.4 11426.2 24970.5 11428.1 24970.5 11431 24970.5 11433.8 24972.4 11435.7 24975.2 11435.7L24995.6 11435.7C24998.4 11435.7 25000.3 11433.8 25000.3 11431 25000.3 11428.1 24998.4 11426.2 24995.6 11426.2L24975.2 11426.2Z" transform="matrix(1.00031 0 0 1 -6.60089 -43.2)"/><path d="M24995.6 11442.3 24975.2 11442.3C24972.4 11442.3 24970.5 11444.2 24970.5 11447.1 24970.5 11449.9 24972.4 11451.8 24975.2 11451.8L24995.6 11451.8C24998.4 11451.8 25000.3 11449.9 25000.3 11447.1 25000.3 11444.2 24998.4 11442.3 24995.6 11442.3Z" transform="matrix(1.00031 0 0 1 -6.60089 -43.2)"/><path d="M24995.6 11458 24975.2 11458C24972.4 11458 24970.5 11459.9 24970.5 11462.7 24970.5 11465.6 24972.4 11467.5 24975.2 11467.5L24995.6 11467.5C24998.4 11467.5 25000.3 11465.6 25000.3 11462.7 25000.3 11460.3 24998.4 11458 24995.6 11458Z" transform="matrix(1.00031 0 0 1 -6.60089 -43.2)"/><path d="M40.7689 288.701 109.033 288.701C112.826 288.701 116.618 287.278 118.988 283.96 121.359 281.116 122.781 277.323 122.307 273.531L120.41 259.309C118.514 246.51 110.455 236.554 99.5519 231.34 105.241 225.177 108.559 217.118 108.559 208.111 108.559 189.623 93.3892 174.453 74.901 174.453 56.4128 174.453 41.243 189.623 41.243 208.111 41.243 217.118 44.5613 225.177 50.25 230.866 39.3467 236.08 30.8137 246.036 29.3915 258.835L27.4953 273.057C27.0212 276.849 27.9694 280.642 30.8137 283.486 33.184 286.804 36.9764 288.701 40.7689 288.701ZM74.901 189.149C85.8043 189.149 94.3373 198.156 94.3373 208.585 94.3373 219.488 85.3302 228.021 74.901 228.021 64.4717 228.021 55.4647 219.014 55.4647 208.585 55.4647 197.682 63.9977 189.149 74.901 189.149ZM43.6132 261.679C45.0354 250.776 54.5165 242.243 65.8939 242.243L84.3821 242.243C95.2854 242.243 104.767 250.302 106.663 261.679L109.507 274.953 41.717 275.427 43.6132 261.679Z" transform="matrix(1.00031 0 0 1 -6.60089 -43.2)"/><path d="M131.314 309.085 18.9623 309.085C15.1698 309.085 11.8514 312.404 11.8514 316.196L11.8514 416.222C11.8514 420.014 15.1698 423.333 18.9623 423.333L131.314 423.333C135.106 423.333 138.425 420.014 138.425 416.222L138.425 315.722C137.951 311.929 135.106 309.085 131.314 309.085ZM124.203 409.111 25.5991 409.111 25.5991 322.833 123.729 322.833 123.729 409.111Z" transform="matrix(1.00031 0 0 1 -6.60089 -43.2)"/><path d="M202.896 226.599 271.161 226.599C274.953 226.599 278.745 225.177 281.116 221.859 283.486 219.014 284.908 215.222 284.434 211.429L282.538 197.208C280.642 184.408 272.583 174.453 261.679 169.238 267.368 163.076 270.686 155.017 270.686 146.01 270.686 127.521 255.517 112.351 237.028 112.351 218.54 112.351 203.37 127.521 203.37 146.01 203.37 155.017 206.689 163.076 212.378 168.764 201.474 173.979 192.941 183.934 191.519 196.734L189.623 210.955C189.149 214.748 190.097 218.54 192.941 221.385 195.311 224.703 199.104 226.599 202.896 226.599ZM237.028 127.047C247.932 127.047 256.465 136.054 256.465 146.484 256.465 157.387 247.458 165.92 237.028 165.92 226.599 165.92 217.592 156.913 217.592 146.484 217.592 135.58 226.125 127.047 237.028 127.047ZM205.741 199.578C207.163 188.675 216.644 180.142 228.021 180.142L246.51 180.142C257.413 180.142 266.894 188.201 268.79 199.578L271.635 212.852 203.844 213.326 205.741 199.578Z" transform="matrix(1.00031 0 0 1 -6.60089 -43.2)"/><path d="M292.967 246.984 181.09 246.984C177.297 246.984 173.979 250.302 173.979 254.094L173.979 416.696C173.979 420.488 177.297 423.807 181.09 423.807L293.441 423.807C297.234 423.807 300.552 420.488 300.552 416.696L300.552 253.62C300.078 249.828 297.234 246.984 292.967 246.984ZM286.33 409.111 187.727 409.111 187.727 260.731 285.856 260.731 285.856 409.111Z" transform="matrix(1.00031 0 0 1 -6.60089 -43.2)"/><path d="M365.024 164.498 433.288 164.498C437.08 164.498 440.873 163.076 443.243 159.757 445.613 156.913 447.036 153.12 446.562 149.328L444.665 135.106C442.769 122.307 434.71 112.351 423.807 107.137 429.496 100.974 432.814 92.9152 432.814 83.9081 432.814 65.4199 417.644 50.25 399.156 50.25 380.668 50.25 365.498 65.4199 365.498 83.9081 365.498 92.9152 368.816 100.974 374.505 106.663 363.602 111.877 355.069 121.833 353.646 134.632L351.75 148.854C351.276 152.646 352.224 156.439 355.069 159.283 357.439 162.602 361.231 164.498 365.024 164.498ZM399.156 64.9458C410.059 64.9458 418.592 73.9529 418.592 84.3821 418.592 95.2854 409.585 103.818 399.156 103.818 388.253 103.818 379.72 94.8114 379.72 84.3821 379.72 73.4788 388.253 64.9458 399.156 64.9458ZM367.868 137.477C369.29 126.573 378.771 118.04 390.149 118.04L408.637 118.04C419.54 118.04 429.021 126.099 430.918 137.477L433.762 150.75 365.972 151.698 367.868 137.477Z" transform="matrix(1.00031 0 0 1 -6.60089 -43.2)"/><path d="M455.095 184.882 342.743 184.882C338.951 184.882 335.632 188.201 335.632 191.993L335.632 416.696C335.632 420.488 338.951 423.807 342.743 423.807L455.095 423.807C458.887 423.807 462.205 420.488 462.205 416.696L462.205 191.519C462.205 187.727 458.887 184.882 455.095 184.882ZM448.458 409.111 349.854 409.111 349.854 198.63 447.984 198.63 447.984 409.111Z" transform="matrix(1.00031 0 0 1 -6.60089 -43.2)"/></g></svg>