<svg width="474" height="480" xmlns="http://www.w3.org/2000/svg" xmlns:xlink="http://www.w3.org/1999/xlink" overflow="hidden"><defs><clipPath id="clip0"><rect x="0" y="0" width="474" height="480"/></clipPath></defs><g clip-path="url(#clip0)"><path d="M24994.5 11376.5 24994.5 11367C24994.5 11353.7 24970.8 11348 24948.5 11348 24926.2 11348 24902.5 11354.2 24902.5 11367L24902.5 11376.5C24902.5 11385 24905.9 11393.5 24912 11399.7L24935.7 11422.9C24937.1 11424.3 24937.6 11425.8 24937.6 11427.7L24937.6 11458C24937.6 11459.9 24938.6 11461.3 24940.5 11461.8L24954.2 11466.1C24956.6 11466.5 24958.9 11465.1 24958.9 11462.3L24958.9 11428.1C24958.9 11426.2 24959.9 11424.8 24960.8 11423.4L24985 11399.7C24991.2 11393.5 24994.5 11385 24994.5 11376.5ZM24948.5 11376C24925.8 11376 24913.4 11369.8 24913 11367.5L24913 11367.5C24913.4 11365.1 24925.8 11358.9 24948.5 11358.9 24971.3 11358.9 24983.1 11365.1 24984.1 11367.5 24983.1 11369.8 24971.3 11376 24948.5 11376Z" transform="scale(1 1.00012)"/><path d="M24972.2 11424.8C24969.4 11424.8 24967.5 11426.7 24967.5 11429.6 24967.5 11432.4 24969.4 11434.3 24972.2 11434.3L24992.6 11434.3C24995.4 11434.3 24997.3 11432.4 24997.3 11429.6 24997.3 11426.7 24995.4 11424.8 24992.6 11424.8L24972.2 11424.8Z" transform="scale(1 1.00012)"/><path d="M24992.6 11440.9 24972.2 11440.9C24969.4 11440.9 24967.5 11442.8 24967.5 11445.7 24967.5 11448.5 24969.4 11450.4 24972.2 11450.4L24992.6 11450.4C24995.4 11450.4 24997.3 11448.5 24997.3 11445.7 24997.3 11442.8 24995.4 11440.9 24992.6 11440.9Z" transform="scale(1 1.00012)"/><path d="M24992.6 11456.6 24972.2 11456.6C24969.4 11456.6 24967.5 11458.5 24967.5 11461.3 24967.5 11464.2 24969.4 11466.1 24972.2 11466.1L24992.6 11466.1C24995.4 11466.1 24997.3 11464.2 24997.3 11461.3 24997.3 11458.9 24995.4 11456.6 24992.6 11456.6Z" transform="scale(1 1.00012)"/><path d="M40.764 288.666 109.02 288.666C112.812 288.666 116.604 287.244 118.974 283.926 121.344 281.082 122.766 277.29 122.292 273.498L120.396 259.278C118.5 246.48 110.442 236.526 99.54 231.312 105.228 225.15 108.546 217.092 108.546 208.086 108.546 189.6 93.378 174.432 74.892 174.432 56.406 174.432 41.238 189.6 41.238 208.086 41.238 217.092 44.556 225.15 50.244 230.838 39.342 236.052 30.81 246.006 29.388 258.804L27.492 273.024C27.018 276.816 27.966 280.608 30.81 283.452 33.18 286.77 36.972 288.666 40.764 288.666ZM74.892 189.126C85.794 189.126 94.326 198.132 94.326 208.56 94.326 219.462 85.32 227.994 74.892 227.994 64.464 227.994 55.458 218.988 55.458 208.56 55.458 197.658 63.99 189.126 74.892 189.126ZM43.608 261.648C45.03 250.746 54.51 242.214 65.886 242.214L84.372 242.214C95.274 242.214 104.754 250.272 106.65 261.648L109.494 274.92 41.712 275.394 43.608 261.648Z" transform="scale(1 1.00012)"/><path d="M131.298 309.048 18.96 309.048C15.168 309.048 11.85 312.366 11.85 316.158L11.85 416.172C11.85 419.964 15.168 423.282 18.96 423.282L131.298 423.282C135.09 423.282 138.408 419.964 138.408 416.172L138.408 315.684C137.934 311.892 135.09 309.048 131.298 309.048ZM124.188 409.062 25.596 409.062 25.596 322.794 123.714 322.794 123.714 409.062Z" transform="scale(1 1.00012)"/><path d="M202.872 226.572 271.128 226.572C274.92 226.572 278.712 225.15 281.082 221.832 283.452 218.988 284.874 215.196 284.4 211.404L282.504 197.184C280.608 184.386 272.55 174.432 261.648 169.218 267.336 163.056 270.654 154.998 270.654 145.992 270.654 127.506 255.486 112.338 237 112.338 218.514 112.338 203.346 127.506 203.346 145.992 203.346 154.998 206.664 163.056 212.352 168.744 201.45 173.958 192.918 183.912 191.496 196.71L189.6 210.93C189.126 214.722 190.074 218.514 192.918 221.358 195.288 224.676 199.08 226.572 202.872 226.572ZM237 127.032C247.902 127.032 256.434 136.038 256.434 146.466 256.434 157.368 247.428 165.9 237 165.9 226.572 165.9 217.566 156.894 217.566 146.466 217.566 135.564 226.098 127.032 237 127.032ZM205.716 199.554C207.138 188.652 216.618 180.12 227.994 180.12L246.48 180.12C257.382 180.12 266.862 188.178 268.758 199.554L271.602 212.826 203.82 213.3 205.716 199.554Z" transform="scale(1 1.00012)"/><path d="M292.932 246.954 181.068 246.954C177.276 246.954 173.958 250.272 173.958 254.064L173.958 416.646C173.958 420.438 177.276 423.756 181.068 423.756L293.406 423.756C297.198 423.756 300.516 420.438 300.516 416.646L300.516 253.59C300.042 249.798 297.198 246.954 292.932 246.954ZM286.296 409.062 187.704 409.062 187.704 260.7 285.822 260.7 285.822 409.062Z" transform="scale(1 1.00012)"/><path d="M364.98 164.478 433.236 164.478C437.028 164.478 440.82 163.056 443.19 159.738 445.56 156.894 446.982 153.102 446.508 149.31L444.612 135.09C442.716 122.292 434.658 112.338 423.756 107.124 429.444 100.962 432.762 92.904 432.762 83.898 432.762 65.412 417.594 50.244 399.108 50.244 380.622 50.244 365.454 65.412 365.454 83.898 365.454 92.904 368.772 100.962 374.46 106.65 363.558 111.864 355.026 121.818 353.604 134.616L351.708 148.836C351.234 152.628 352.182 156.42 355.026 159.264 357.396 162.582 361.188 164.478 364.98 164.478ZM399.108 64.938C410.01 64.938 418.542 73.944 418.542 84.372 418.542 95.274 409.536 103.806 399.108 103.806 388.206 103.806 379.674 94.8 379.674 84.372 379.674 73.47 388.206 64.938 399.108 64.938ZM367.824 137.46C369.246 126.558 378.726 118.026 390.102 118.026L408.588 118.026C419.49 118.026 428.97 126.084 430.866 137.46L433.71 150.732 365.928 151.68 367.824 137.46Z" transform="scale(1 1.00012)"/><path d="M455.04 184.86 342.702 184.86C338.91 184.86 335.592 188.178 335.592 191.97L335.592 416.646C335.592 420.438 338.91 423.756 342.702 423.756L455.04 423.756C458.832 423.756 462.15 420.438 462.15 416.646L462.15 191.496C462.15 187.704 458.832 184.86 455.04 184.86ZM448.404 409.062 349.812 409.062 349.812 198.606 447.93 198.606 447.93 409.062Z" transform="scale(1 1.00012)"/><text font-family="Arial,Arial_MSFontService,sans-serif" font-weight="700" font-size="5" transform="matrix(4.74 0 0 4.74057 0 545)"> <tspan x="0" y="5.06269"> </tspan></text></g></svg>