<?xml version="1.0" encoding="UTF-8"?>
<svg xmlns="http://www.w3.org/2000/svg" xmlns:xlink="http://www.w3.org/1999/xlink" width="20pt" height="20pt" viewBox="0 0 20 20" version="1.1">
<g id="surface1">
<path style="fill:none;stroke-width:16.9595;stroke-linecap:butt;stroke-linejoin:miter;stroke:rgb(0%,0%,0%);stroke-opacity:1;stroke-miterlimit:10;" d="M 178.072905 252.284555 C 178.072905 269.846428 197.065509 284.024822 220.428798 284.024822 C 243.95102 284.024822 262.864158 269.846428 262.864158 252.284555 C 262.864158 234.642122 243.95102 220.544288 220.428798 220.544288 C 197.065509 220.544288 178.072905 206.204777 178.072905 188.642903 C 178.072905 171.08103 197.065509 156.902636 220.428798 156.902636 C 243.95102 156.902636 262.864158 171.08103 262.864158 188.642903 " transform="matrix(0.0491556,0,0,0.0484893,-0.686882,-0.447939)"/>
<path style="fill:none;stroke-width:16.9595;stroke-linecap:butt;stroke-linejoin:miter;stroke:rgb(0%,0%,0%);stroke-opacity:1;stroke-miterlimit:10;" d="M 220.428798 156.902636 L 220.428798 132.412684 " transform="matrix(0.0491556,0,0,0.0484893,-0.686882,-0.447939)"/>
<path style="fill:none;stroke-width:16.9595;stroke-linecap:butt;stroke-linejoin:miter;stroke:rgb(0%,0%,0%);stroke-opacity:1;stroke-miterlimit:10;" d="M 220.428798 308.514774 L 220.428798 284.024822 " transform="matrix(0.0491556,0,0,0.0484893,-0.686882,-0.447939)"/>
<path style="fill:none;stroke-width:16.9595;stroke-linecap:butt;stroke-linejoin:miter;stroke:rgb(0%,0%,0%);stroke-opacity:1;stroke-miterlimit:10;" d="M 237.434728 76.746379 C 274.386868 81.096568 306.968324 99.383473 330.013744 126.209637 L 372.528571 97.772292 C 340.106049 57.331647 291.949067 30.183246 237.434728 25.430262 Z M 237.434728 76.746379 " transform="matrix(0.0491556,0,0,0.0484893,-0.686882,-0.447939)"/>
<path style="fill:none;stroke-width:16.9595;stroke-linecap:butt;stroke-linejoin:miter;stroke:rgb(0%,0%,0%);stroke-opacity:1;stroke-miterlimit:10;" d="M 348.847415 154.485865 C 358.860253 174.222833 364.581875 196.457131 364.581875 220.141493 C 364.581875 264.046177 344.953534 303.278435 314.120351 329.782364 L 342.569525 372.398103 C 386.991559 336.629883 415.5202 281.688609 415.5202 220.141493 C 415.5202 185.984454 406.778834 153.921951 391.441709 125.96796 Z M 348.847415 154.485865 " transform="matrix(0.0491556,0,0,0.0484893,-0.686882,-0.447939)"/>
<path style="fill:none;stroke-width:16.9595;stroke-linecap:butt;stroke-linejoin:miter;stroke:rgb(0%,0%,0%);stroke-opacity:1;stroke-miterlimit:10;" d="M 285.909578 348.713741 C 266.281237 358.703064 244.030487 364.503315 220.428798 364.503315 C 140.882364 364.503315 76.355188 299.814396 76.355188 220.141493 C 76.355188 146.027164 131.902597 85.12452 203.502334 76.746379 L 203.502334 25.430262 C 103.771291 34.050081 25.416862 117.912055 25.416862 220.141493 C 25.416862 328.010065 112.830525 415.497196 220.428798 415.497196 C 254.520126 415.497196 286.545314 406.796818 314.358752 391.410039 Z M 285.909578 348.713741 " transform="matrix(0.0491556,0,0,0.0484893,-0.686882,-0.447939)"/>
</g>
</svg>
