<svg width="471" height="480" xmlns="http://www.w3.org/2000/svg" xmlns:xlink="http://www.w3.org/1999/xlink" overflow="hidden"><defs><clipPath id="clip0"><rect x="0" y="0" width="471" height="480"/></clipPath></defs><g clip-path="url(#clip0)"><path d="M377.572 284.364C326.312 284.364 284.609 326.124 284.609 377.45 284.609 428.776 326.317 470.536 377.572 470.536 428.828 470.536 470.536 428.776 470.536 377.45 470.536 326.124 428.833 284.364 377.572 284.364ZM377.572 463.187C330.368 463.187 291.963 424.725 291.963 377.45 291.963 330.175 330.368 291.714 377.572 291.714 424.777 291.714 463.182 330.175 463.182 377.45 463.182 424.725 424.777 463.187 377.572 463.187ZM380.73 373.027 380.73 336.481C391.091 337.85 398.671 344.8 398.723 350.992L406.078 350.992C406.007 342.701 397.918 330.815 380.73 329.084L380.73 317.659 373.375 317.725 373.375 329.206C360.727 330.938 348.526 340.386 348.634 353.617 348.809 373.314 363.678 379.036 373.375 380.095L373.375 416.575C366.28 415.328 356.483 410.035 356.417 402.233L349.063 402.233C349.161 413.921 361.513 422.415 373.371 424.014L373.371 435.571 380.725 435.505 380.725 424.141C393.735 422.8 406.623 413.206 406.506 399.603 406.388 385.976 398.478 374.434 380.73 373.027ZM373.38 372.679C364.741 371.484 356.111 366.797 355.994 353.556 355.918 344.804 364.473 338.254 373.38 336.645L373.38 372.679ZM380.73 416.74 380.73 380.41C393.015 381.652 399.062 388.724 399.156 399.669 399.236 408.769 390.004 415.479 380.73 416.74ZM273.372 361.414C275.739 363.748 275.777 367.583 273.429 369.936 270.892 372.467 267.152 372.227 264.907 369.983L235.268 340.697 205.629 369.978C203.502 372.11 199.738 372.552 197.112 369.931 194.76 367.578 194.797 363.748 197.164 361.41L229.245 329.714 229.245 294.057C229.245 290.73 231.941 288.039 235.268 288.039 238.595 288.039 241.286 290.73 241.286 294.057L241.286 329.714 273.372 361.414ZM93.0909 284.364C41.7601 284.364 0 326.124 0 377.45 0 428.776 41.7601 470.536 93.0909 470.536 144.422 470.536 186.177 428.776 186.177 377.45 186.177 326.124 144.417 284.364 93.0909 284.364ZM93.0909 463.187C45.8161 463.187 7.35448 424.725 7.35448 377.45 7.35448 330.175 45.8161 291.714 93.0909 291.714 140.366 291.714 178.827 330.175 178.827 377.45 178.827 424.725 140.366 463.187 93.0909 463.187ZM155.141 371.63 149.866 351.472 141.415 352.281 139.034 348.159 143.923 341.322 129.209 326.609 122.386 331.488 118.255 329.098 119.055 320.661 98.9067 315.391 95.4483 323.009 90.7288 323.004 87.2657 315.396 67.1126 320.656 67.9219 329.121 63.8047 331.498 56.9678 326.609 42.2495 341.322 47.1336 348.15 44.7433 352.276 36.3066 351.472 31.0413 371.63 38.6546 375.083 38.6499 379.808 31.0413 383.261 36.3019 403.414 44.7621 402.605 47.143 406.722 42.2495 413.568 56.9631 428.282 63.7859 423.398 67.9172 425.788 67.1126 434.234 87.2657 439.495 90.7241 431.877 95.4483 431.886 98.902 439.495 119.055 434.234 118.25 425.774 122.372 423.389 129.209 428.282 143.918 413.568 139.043 406.741 141.434 402.614 149.866 403.414 155.141 383.261 147.523 379.808 147.527 375.083 155.141 371.63ZM140.022 372.994 139.745 384.701 147.132 387.637 144.958 395.646 137.143 394.498 129.877 407.066 134.771 413.3 128.946 419.126 122.702 414.227 110.148 421.483 111.287 429.317 103.278 431.491 100.337 424.118 85.8399 424.099 82.8991 431.491 74.8906 429.317 76.0293 421.497 63.4753 414.237 57.236 419.126 51.4061 413.3 56.3091 407.056 49.0534 394.502 41.2143 395.646 39.0451 387.637 46.4231 384.711 46.4372 370.199 39.0451 367.263 41.2143 359.254 49.0393 360.384 56.295 347.839 51.4061 341.6 57.2313 335.77 63.4848 340.664 76.0293 333.417 74.8906 325.578 82.9038 323.409 85.8399 330.782 100.347 330.792 103.287 323.409 111.296 325.583 110.157 333.403 122.716 340.664 128.955 335.77 134.78 341.595 129.887 347.839 137.133 360.384 144.972 359.254 147.146 367.258 139.773 370.194 140.022 372.994ZM93.0909 348.799C77.295 348.799 64.4399 361.65 64.4399 377.45 64.4399 393.251 77.2903 406.096 93.0909 406.096 108.887 406.096 121.737 393.251 121.737 377.45 121.737 361.65 108.887 348.799 93.0909 348.799ZM93.0909 398.742C81.3463 398.742 71.7944 389.19 71.7944 377.45 71.7944 365.706 81.351 356.154 93.0909 356.154 104.831 356.154 114.387 365.706 114.387 377.45 114.387 389.19 104.831 398.742 93.0909 398.742ZM235.094 120.5C268.319 120.5 295.346 93.472 295.346 60.2475 295.346 27.0229 268.319 0 235.094 0 201.869 0 174.842 27.0276 174.842 60.2522 174.842 93.4767 201.874 120.5 235.094 120.5ZM235.094 7.35448C264.263 7.35448 287.996 31.0836 287.996 60.2522 287.996 89.4207 264.263 113.15 235.094 113.15 205.926 113.15 182.196 89.4207 182.196 60.2522 182.196 31.0836 205.93 7.35448 235.094 7.35448ZM334.584 192.002C334.584 155.277 299.605 121.549 258.277 121.549L212.245 121.549C212.245 121.549 212.245 121.549 212.24 121.549 173.746 121.549 135.952 152.708 135.952 192.002L135.952 280.228 334.584 280.228 334.584 192.002ZM250.523 128.903 235.268 147.555 220.004 128.899 250.523 128.899ZM186.991 272.873 186.991 187.278C186.991 185.245 185.344 183.603 183.316 183.603 181.288 183.603 179.641 185.25 179.641 187.278L179.641 272.873 143.307 272.873 143.307 192.002C143.307 158.359 175.576 129.868 210.541 128.95L228.897 151.386 208.655 245.004C208.396 246.208 208.758 247.464 209.624 248.349L233.64 272.878 186.991 272.878ZM216.258 244.613 235.268 156.703 254.283 244.618 235.268 264.032 216.258 244.613ZM327.234 272.873 290.895 272.873 290.895 187.278C290.895 185.245 289.248 183.603 287.22 183.603 285.192 183.603 283.545 185.25 283.545 187.278L283.545 272.873 236.924 272.873 260.922 248.344C261.788 247.46 262.155 246.203 261.886 244.999L241.644 151.381C245.229 146.991 256.391 133.345 259.99 128.946 296 129.84 327.234 158.91 327.234 191.998L327.234 272.873Z" transform="matrix(1.00099 0 0 1 0 0.0058817)"/><text font-family="Arial,Arial_MSFontService,sans-serif" font-weight="700" font-size="5" transform="matrix(4.71 0 0 4.70536 0 541)">Created by b farias<tspan x="0" y="5.10056">from the Noun Project</tspan></text></g></svg>