<svg width="413" height="422" xmlns="http://www.w3.org/2000/svg" xmlns:xlink="http://www.w3.org/1999/xlink" overflow="hidden"><defs><clipPath id="clip0"><rect x="0" y="0" width="413" height="422"/></clipPath></defs><g clip-path="url(#clip0)"><path d="M178.075 252.273C178.075 269.836 197.058 284.072 220.474 284.072 243.889 284.072 262.872 269.836 262.872 252.273 262.872 234.712 243.889 220.474 220.474 220.474 197.058 220.474 178.075 206.238 178.075 188.675 178.075 171.114 197.058 156.875 220.474 156.875 243.889 156.875 262.872 171.114 262.872 188.675" stroke="#000000" stroke-width="16.9595" stroke-miterlimit="10" fill="none" transform="matrix(1 0 0 1.00794 -13.9736 -9.31123)"/><path d="M220.474 156.875 220.474 132.415" stroke="#000000" stroke-width="16.9595" stroke-miterlimit="10" fill="none" transform="matrix(1 0 0 1.00794 -13.9736 -9.31123)"/><path d="M220.474 308.533 220.474 284.072" stroke="#000000" stroke-width="16.9595" stroke-miterlimit="10" fill="none" transform="matrix(1 0 0 1.00794 -13.9736 -9.31123)"/><path d="M237.433 76.7239C274.373 81.0698 306.996 99.3836 329.971 126.284L372.523 97.7537C340.101 57.3443 291.986 30.1523 237.433 25.4393L237.433 76.7239Z" stroke="#000000" stroke-width="16.9595" stroke-miterlimit="10" fill="none" transform="matrix(1 0 0 1.00794 -13.9736 -9.31123)"/><path d="M348.821 154.539C358.855 174.227 364.629 196.459 364.629 220.083 364.629 264.024 344.98 303.307 314.085 329.8L342.558 372.438C387.022 336.619 415.508 281.698 415.508 220.083 415.508 185.961 406.761 153.895 391.42 125.977L348.821 154.539Z" stroke="#000000" stroke-width="16.9595" stroke-miterlimit="10" fill="none" transform="matrix(1 0 0 1.00794 -13.9736 -9.31123)"/><path d="M285.886 348.688C266.238 358.742 244.049 364.528 220.474 364.528 140.857 364.528 76.3178 299.858 76.3178 220.083 76.3178 146.068 131.906 85.1478 203.514 76.7239L203.514 25.4393C103.747 34.0581 25.4393 117.883 25.4393 220.083 25.4393 328.014 112.758 415.508 220.474 415.508 254.527 415.508 286.528 406.743 314.39 391.373L285.886 348.688Z" stroke="#000000" stroke-width="16.9595" stroke-miterlimit="10" fill="none" transform="matrix(1 0 0 1.00794 -13.9736 -9.31123)"/><text font-family="Arial,Arial_MSFontService,sans-serif" font-weight="700" font-size="5" transform="matrix(8.47975 0 0 8.54712 -13.9736 563)">Created by DinosoftLab<tspan x="0" y="5.03093">from the Noun Project</tspan></text></g></svg>