<svg width="18" height="18" xmlns="http://www.w3.org/2000/svg">
 <title>Save property</title>

 <g>
  <title>background</title>
  <rect fill="none" id="canvas_background" height="20" width="20" y="-1" x="-1"/>
 </g>
 <g>
  <title>Save property</title>
  <path stroke="null" id="svg_1" d="m17.00235,6.03811l0,1.3088a0.46732,0.47771 0 0 0 -0.02881,0.08998a4.80118,4.90799 0 0 1 -0.43211,1.50512a10.03928,10.2626 0 0 1 -1.93968,2.78937c-1.6212,1.72434 -3.48726,3.12312 -5.47335,4.36647a0.19525,0.19959 0 0 1 -0.23846,0a28.91113,29.55427 0 0 1 -4.48111,-3.37342a13.97145,14.28225 0 0 1 -2.56543,-3.07076a5.42854,5.5493 0 0 1 -0.69617,-4.26831c0.72658,-3.30308 4.74997,-4.65277 7.25619,-2.43927c0.21445,0.18814 0.4033,0.40736 0.61775,0.62331a0.68177,0.69693 0 0 1 0.04321,-0.06544c1.12028,-1.28098 2.50462,-1.85358 4.16103,-1.56892c1.81645,0.31084 3.00714,1.42004 3.58648,3.20492a8.15081,8.33213 0 0 1 0.19045,0.89816z"/>
 </g>
</svg>