<svg width="16" height="18" xmlns="http://www.w3.org/2000/svg">

 <g>
  <title>background</title>
  <rect fill="none" id="canvas_background" height="20" width="18" y="-1" x="-1"/>
 </g>
 <g>
  <title>Layer 1</title>
  <path stroke="null" id="svg_1" d="m7.74909,0.34874c-3.39196,0 -6.15007,3.06628 -6.15007,6.83722c0,3.77095 3.5804,8.05612 6.15007,10.51295c2.56967,-2.45683 6.15007,-6.742 6.15007,-10.51295c0,-3.77095 -2.75811,-6.83722 -6.15007,-6.83722zm0,15.08379c-1.62746,-1.69502 -4.60827,-5.38979 -4.60827,-8.24657c0,-2.81869 2.07286,-5.12316 4.60827,-5.12316s4.60827,2.30447 4.60827,5.12316c0,2.83773 -2.98081,6.5325 -4.60827,8.24657z"/>
  <path stroke="null" id="svg_2" d="m9.52412,6.58213c0,-1.09529 -0.79479,-1.98336 -1.77503,-1.98336s-1.77503,0.88807 -1.77503,1.98336c0,1.09529 0.79479,1.98336 1.77503,1.98336s1.77503,-0.88807 1.77503,-1.98336z"/>
 </g>
</svg>