<svg width="422" height="298" xmlns="http://www.w3.org/2000/svg" xmlns:xlink="http://www.w3.org/1999/xlink" overflow="hidden"><defs><clipPath id="clip0"><rect x="0" y="0" width="422" height="298"/></clipPath></defs><g clip-path="url(#clip0)"><path d="M411.805 382.181 167.885 382.181 167.885 241.316 144.771 241.316C140.772 241.316 137.098 238.805 135.703 235.039 134.308 231.271 135.377 226.993 138.4 224.342L138.447 224.295 289.822 94.0803 441.243 224.342C444.266 226.993 445.335 231.271 443.94 235.039 442.545 238.805 438.871 241.316 434.871 241.316L411.758 241.316 411.758 382.181ZM186.486 363.579 393.203 363.579 393.203 222.714 410.875 222.714 289.868 118.588 168.861 222.714 186.533 222.714 186.533 363.579Z" transform="matrix(1 0 0 1.00139 -26.5114 -92.1194)"/><path d="M337.582 382.181 242.153 382.181 242.153 267.778C242.153 261.5 247.269 256.384 253.547 256.384L326.189 256.384C329.258 256.384 332.095 257.593 334.28 259.733 336.419 261.872 337.629 264.755 337.582 267.825L337.582 382.181ZM260.756 363.579 318.98 363.579 318.98 274.939 260.756 274.939 260.756 363.579ZM318.98 267.732C318.98 267.732 318.98 267.778 318.98 267.778L318.98 267.732Z" transform="matrix(1 0 0 1.00139 -26.5114 -92.1194)"/><path d="M399.853 213.227 349.999 170.35 349.999 125.936 359.347 125.89 391.715 125.89 399.853 127.983 399.899 135.238 399.899 213.227ZM368.601 161.792 381.251 172.675 381.251 144.445 368.601 144.445 368.601 161.792Z" transform="matrix(1 0 0 1.00139 -26.5114 -92.1194)"/><path d="M186.486 361.394 58.3178 361.394 58.3178 246.711 41.2503 246.711C37.2973 246.711 33.6698 244.199 32.2747 240.525 30.8795 236.806 31.9027 232.574 34.879 229.923L34.972 229.83 159.327 122.821 222.156 176.859 168.861 222.714 186.533 222.714 186.533 361.394ZM76.9199 342.791 167.885 342.791 167.885 241.316 144.771 241.316C140.726 241.316 137.191 238.898 135.749 235.132 134.308 231.364 135.284 227.179 138.261 224.481L138.447 224.295 193.602 176.859 159.327 147.375 65.4795 228.109 76.9199 228.109 76.9199 342.791Z" transform="matrix(1 0 0 1.00139 -26.5114 -92.1194)"/><path d="M177.185 361.394 118.774 361.394 118.774 267.22C118.774 260.756 124.03 255.501 130.494 255.501L151.607 255.501 151.607 274.102 137.331 274.102 137.331 342.791 177.185 342.791 177.185 361.394Z" transform="matrix(1 0 0 1.00139 -26.5114 -92.1194)"/></g></svg>