<svg width="462" height="359" xmlns="http://www.w3.org/2000/svg" xmlns:xlink="http://www.w3.org/1999/xlink" overflow="hidden"><defs><clipPath id="clip0"><rect x="0" y="0" width="462" height="359"/></clipPath></defs><g clip-path="url(#clip0)"><path d="M411.818 382.193 167.89 382.193 167.89 241.324 144.776 241.324C140.776 241.324 137.102 238.813 135.707 235.046 134.312 231.278 135.381 227 138.404 224.349L138.451 224.302 289.831 94.0833 441.257 224.349C444.28 227 445.349 231.278 443.954 235.046 442.559 238.813 438.885 241.324 434.885 241.324L411.771 241.324 411.771 382.193ZM186.492 363.59 393.215 363.59 393.215 222.721 410.888 222.721 289.877 118.592 168.866 222.721 186.539 222.721 186.539 363.59Z" transform="matrix(1.00091 0 0 1 -7.33106 -63.1957)"/><path d="M337.593 382.193 242.161 382.193 242.161 267.786C242.161 261.508 247.277 256.392 253.555 256.392L326.199 256.392C329.268 256.392 332.105 257.601 334.291 259.741 336.43 261.88 337.64 264.763 337.593 267.833L337.593 382.193ZM260.764 363.59 318.99 363.59 318.99 274.948 260.764 274.948 260.764 363.59ZM318.99 267.74C318.99 267.74 318.99 267.786 318.99 267.786L318.99 267.74Z" transform="matrix(1.00091 0 0 1 -7.33106 -63.1957)"/><path d="M399.866 213.234 350.01 170.355 350.01 125.94 359.358 125.894 391.727 125.894 399.866 127.987 399.912 135.242 399.912 213.234ZM368.613 161.797 381.263 172.68 381.263 144.45 368.613 144.45 368.613 161.797Z" transform="matrix(1.00091 0 0 1 -7.33106 -63.1957)"/><path d="M186.492 361.405 58.3196 361.405 58.3196 246.719 41.2516 246.719C37.2985 246.719 33.6709 244.207 32.2757 240.533 30.8805 236.813 31.9037 232.581 34.8801 229.93L34.9731 229.837 159.332 122.825 222.163 176.865 168.866 222.721 186.539 222.721 186.539 361.405ZM76.9223 342.802 167.89 342.802 167.89 241.324 144.776 241.324C140.73 241.324 137.195 238.906 135.753 235.139 134.312 231.371 135.288 227.186 138.265 224.488L138.451 224.302 193.608 176.865 159.332 147.38 65.4816 228.116 76.9223 228.116 76.9223 342.802Z" transform="matrix(1.00091 0 0 1 -7.33106 -63.1957)"/><path d="M177.191 361.405 118.778 361.405 118.778 267.228C118.778 260.764 124.034 255.509 130.498 255.509L151.612 255.509 151.612 274.111 137.335 274.111 137.335 342.802 177.191 342.802 177.191 361.405Z" transform="matrix(1.00091 0 0 1 -7.33106 -63.1957)"/><text font-family="Arial,Arial_MSFontService,sans-serif" font-weight="700" font-size="5" transform="matrix(0.46549 0 0 0.465068 -7.33106 420)"> <tspan x="0" y="4.30044"> </tspan></text></g></svg>