<?xml version="1.0" encoding="UTF-8"?>
<svg xmlns="http://www.w3.org/2000/svg" xmlns:xlink="http://www.w3.org/1999/xlink" width="27pt" height="20pt" viewBox="0 0 27 20" version="1.1">
<g id="surface1">
<path style=" stroke:none;fill-rule:nonzero;fill:rgb(0%,0%,0%);fill-opacity:1;" d="M 24.417969 19.246094 L 8.960938 19.246094 L 8.960938 9.90625 L 7.496094 9.90625 C 7.242188 9.90625 7.007812 9.738281 6.921875 9.488281 C 6.832031 9.234375 6.898438 8.953125 7.089844 8.777344 L 7.09375 8.773438 L 16.6875 0.140625 L 26.285156 8.777344 C 26.476562 8.953125 26.542969 9.234375 26.457031 9.488281 C 26.367188 9.738281 26.132812 9.90625 25.878906 9.90625 L 24.417969 9.90625 Z M 10.140625 18.011719 L 23.242188 18.011719 L 23.242188 8.671875 L 24.359375 8.671875 L 16.691406 1.761719 L 9.023438 8.671875 L 10.140625 8.671875 Z M 10.140625 18.011719 "/>
<path style=" stroke:none;fill-rule:nonzero;fill:rgb(0%,0%,0%);fill-opacity:1;" d="M 19.714844 19.246094 L 13.667969 19.246094 L 13.667969 11.660156 C 13.667969 11.242188 13.992188 10.902344 14.390625 10.902344 L 18.992188 10.902344 C 19.1875 10.902344 19.367188 10.984375 19.507812 11.125 C 19.640625 11.265625 19.71875 11.460938 19.714844 11.664062 Z M 14.84375 18.011719 L 18.535156 18.011719 L 18.535156 12.132812 L 14.84375 12.132812 Z M 18.535156 11.65625 C 18.535156 11.65625 18.535156 11.660156 18.535156 11.660156 Z M 18.535156 11.65625 "/>
<path style=" stroke:none;fill-rule:nonzero;fill:rgb(0%,0%,0%);fill-opacity:1;" d="M 23.660156 8.042969 L 20.5 5.195312 L 20.5 2.25 L 23.144531 2.25 L 23.660156 2.386719 L 23.664062 2.867188 L 23.664062 8.042969 Z M 21.679688 4.628906 L 22.480469 5.351562 L 22.480469 3.480469 L 21.679688 3.480469 Z M 21.679688 4.628906 "/>
<path style=" stroke:none;fill-rule:nonzero;fill:rgb(0%,0%,0%);fill-opacity:1;" d="M 10.140625 17.867188 L 2.015625 17.867188 L 2.015625 10.261719 L 0.933594 10.261719 C 0.683594 10.261719 0.453125 10.09375 0.367188 9.851562 C 0.277344 9.605469 0.339844 9.324219 0.53125 9.148438 L 0.539062 9.140625 L 8.417969 2.046875 L 12.398438 5.628906 L 9.023438 8.671875 L 10.140625 8.671875 Z M 3.195312 16.636719 L 8.960938 16.636719 L 8.960938 9.90625 L 7.496094 9.90625 C 7.238281 9.90625 7.015625 9.742188 6.921875 9.492188 C 6.832031 9.242188 6.894531 8.964844 7.082031 8.785156 L 7.09375 8.773438 L 10.589844 5.628906 L 8.417969 3.671875 L 2.46875 9.027344 L 3.195312 9.027344 Z M 3.195312 16.636719 "/>
<path style=" stroke:none;fill-rule:nonzero;fill:rgb(0%,0%,0%);fill-opacity:1;" d="M 9.550781 17.867188 L 5.847656 17.867188 L 5.847656 11.621094 C 5.847656 11.191406 6.179688 10.84375 6.589844 10.84375 L 7.925781 10.84375 L 7.925781 12.078125 L 7.023438 12.078125 L 7.023438 16.636719 L 9.550781 16.636719 Z M 9.550781 17.867188 "/>
</g>
</svg>
