<svg width="60" height="60" xmlns="http://www.w3.org/2000/svg">

 <g>
  <title>background</title>
  <rect fill="none" id="canvas_background" height="62" width="62" y="-1" x="-1"/>
 </g>
 <g>
  <title>Layer 1</title>
  <g id="svg_3" display="none">
   <path id="svg_4" d="m14.01584,22.94727l0,-2.187c-1.256,-0.021 -2.555,-0.411 -3.313,-0.952l0.519,-1.451c0.78,0.519 1.905,0.931 3.118,0.931c1.537,0 2.576,-0.888 2.576,-2.122c0,-1.191 -0.845,-1.928 -2.446,-2.577c-2.209,-0.866 -3.573,-1.862 -3.573,-3.745c0,-1.798 1.277,-3.162 3.269,-3.486l0,-2.187l1.342,0l0,2.1c1.299,0.043 2.187,0.389 2.815,0.758l-0.541,1.429c-0.455,-0.26 -1.342,-0.736 -2.728,-0.736c-1.668,0 -2.295,0.996 -2.295,1.862c0,1.126 0.801,1.689 2.685,2.469c2.23,0.909 3.356,2.035 3.356,3.962c0,1.71 -1.191,3.313 -3.421,3.681l0,2.251l-1.363,0z"/>
   <g id="svg_5" display="inline">
    <g id="svg_6">
     <rect id="svg_7" height="3.335" width="2.695" transform="matrix(0.7071,-0.7071,0.7071,0.7071,-21.6143,41.7129) " y="20.14643" x="42.32341"/>
     <rect id="svg_8" height="3.812" width="6.57" transform="matrix(0.7071,-0.7071,0.7071,0.7071,-22.661,44.2397) " y="22.43443" x="42.91341"/>
     <path id="svg_9" d="m14.75184,-0.18973c-8.001,0 -14.487,6.486 -14.487,14.487c0,8.001 6.486,14.487 14.487,14.487c8.001,0 14.487,-6.486 14.487,-14.487c0,-8.001 -6.486,-14.487 -14.487,-14.487zm0,26.676c-6.732,0 -12.189,-5.457 -12.189,-12.189c0,-6.732 5.457,-12.189 12.189,-12.189c6.732,0 12.189,5.457 12.189,12.189c0,6.732 -5.457,12.189 -12.189,12.189z"/>
     <rect id="svg_10" height="4.439" width="6.57" transform="matrix(0.7071,-0.7071,0.7071,0.7071,-23.8693,47.1569) " y="25.03843" x="45.83041"/>
    </g>
    <g id="svg_11">
     <g id="svg_12">
      <path id="svg_13" d="m17.14584,-10.25773l23.177,16.544l0,35.024l-46.354,0l0,-35.025l23.177,-16.543m0,-2.458l-25.177,17.972l0,38.054l50.355,0l0,-38.054l-25.178,-17.972l0,0z"/>
     </g>
     <path id="svg_14" d="m36.80384,-6.62973l0,-7.902l-6.158,-6.158c0,0 0,5.751 0,9.656l-13.5,-9.656l-29.973,21.438l0,4.877l29.973,-21.438l29.973,21.438l0,-4.877l-10.315,-7.378z"/>
    </g>
   </g>
  </g>
  <g id="svg_15" display="none">
   <g id="svg_16" display="inline">
    <path id="svg_17" d="m17.14584,-12.71573l-25.177,17.972l0,38.054l50.355,0l0,-38.054l-25.178,-17.972l0,0z"/>
    <path id="svg_18" d="m36.80384,-6.62973l0,-7.902l-6.158,-6.158c0,0 0,5.751 0,9.656l-13.5,-9.656l-29.973,21.438l0,4.877l29.973,-21.438l29.973,21.438l0,-4.877l-10.315,-7.378z"/>
   </g>
   <g id="svg_19" display="inline">
    <path id="svg_20" d="m15.44484,13.05327c-1.884,-0.78 -2.685,-1.342 -2.685,-2.469c0,-0.866 0.628,-1.862 2.295,-1.862c1.386,0 2.273,0.476 2.728,0.736l0.541,-1.429c-0.628,-0.368 -1.516,-0.715 -2.815,-0.758l0,-2.1l-1.342,0l0,2.187c-1.992,0.324 -3.269,1.688 -3.269,3.486c0,1.884 1.364,2.88 3.573,3.745c1.602,0.65 2.446,1.386 2.446,2.577c0,1.234 -1.04,2.122 -2.576,2.122c-1.213,0 -2.339,-0.412 -3.118,-0.931l-0.519,1.451c0.758,0.541 2.057,0.931 3.313,0.952l0,2.187l1.364,0l0,-2.251c2.23,-0.368 3.421,-1.971 3.421,-3.681c-0.001,-1.927 -1.127,-3.053 -3.357,-3.962z" fill="#000000"/>
    <path id="svg_21" d="m28.19284,25.11427l-1.37,1.37l-1.888,-1.888c2.656,-2.626 4.304,-6.269 4.304,-10.299c0,-8.001 -6.486,-14.487 -14.487,-14.487c-8.001,0 -14.487,6.486 -14.487,14.487s6.486,14.487 14.487,14.487c2.997,0 5.781,-0.91 8.091,-2.469l2.074,2.074l-1.37,1.37l2.695,2.695l3.139,3.139l4.646,-4.646l-3.139,-3.139l-2.695,-2.694zm-25.63,-10.817c0,-6.732 5.457,-12.189 12.189,-12.189c6.732,0 12.189,5.457 12.189,12.189s-5.457,12.189 -12.189,12.189c-6.732,0 -12.189,-5.457 -12.189,-12.189z" fill="#000000"/>
   </g>
  </g>
  <g stroke="null" id="svg_22">
   <path stroke="null" id="svg_23" d="m27.17356,24.33492l0,2.01817c-1.89062,0.29899 -3.10263,1.55769 -3.10263,3.21689c0,1.73856 1.29458,2.65767 3.39116,3.45589c1.52047,0.59982 2.32152,1.279 2.32152,2.37806c0,1.13874 -0.98707,1.95818 -2.4449,1.95818c-1.15127,0 -2.21996,-0.38019 -2.95932,-0.85913l-0.49259,1.33898c0.71942,0.49924 1.95231,0.85913 3.14439,0.87851l0,2.01817l1.29458,0l0,-2.07723c2.11651,-0.33959 3.2469,-1.81884 3.2469,-3.39683c0,-1.77824 -1.0687,-2.81731 -3.18521,-3.65614c-1.78812,-0.71978 -2.54835,-1.2384 -2.54835,-2.2784c0,-0.79915 0.59604,-1.71826 2.1782,-1.71826c1.31546,0 2.15732,0.43925 2.58917,0.67918l0.51347,-1.31868c-0.59604,-0.33959 -1.43885,-0.6598 -2.67174,-0.69948l0,-1.93788l-1.27465,0z"/>
   <path stroke="null" id="svg_24" d="m13.97811,32.75641c0,7.38333 6.15591,13.36862 13.74972,13.36862c2.84448,0 5.48679,-0.83975 7.67923,-2.2784l1.96845,1.91389l-1.30028,1.26424l2.55785,2.48695l2.97925,2.89667l4.40955,-4.28733l-2.97925,-2.89667l-2.55785,-2.48695l-1.30028,1.26424l-1.79192,-1.74225c2.52083,-2.42328 4.08496,-5.78504 4.08496,-9.50393c0,-7.38333 -6.15591,-13.36862 -13.74972,-13.36862c-7.59381,0.00092 -13.74972,5.98621 -13.74972,13.36954zm25.3184,0c0,6.2123 -5.17928,11.24802 -11.56867,11.24802c-6.38939,0 -11.56867,-5.03573 -11.56867,-11.24802s5.17928,-11.24802 11.56867,-11.24802c6.38939,0 11.56867,5.03573 11.56867,11.24802z"/>
   <path stroke="null" id="svg_25" d="m6.10432,24.41336l0,35.11628l47.79232,0l0,-35.11628l-23.89663,-16.58458l-23.89568,16.58458zm43.99494,31.42507l-40.19851,0l0,-29.52503l20.09925,-13.94906l20.09925,13.94906l0,29.52503z"/>
   <path stroke="null" id="svg_26" d="m58.4476,24.75388l0,-4.5005l-9.79005,-6.80843l0,-7.29198l-5.8446,-5.68261c0,0 0,5.30703 0,8.91057l-12.81295,-8.91057l-28.4476,19.78301l0,4.5005l28.4476,-19.78301l28.4476,19.78301z"/>
  </g>
  <g id="svg_27" display="none">
   <g id="svg_28" display="inline">
    <path id="svg_29" d="m14.16784,6.17127l0,2.187c-1.992,0.324 -3.269,1.689 -3.269,3.486c0,1.884 1.364,2.88 3.573,3.745c1.602,0.65 2.446,1.386 2.446,2.577c0,1.234 -1.04,2.122 -2.576,2.122c-1.213,0 -2.339,-0.412 -3.118,-0.931l-0.519,1.451c0.758,0.541 2.057,0.931 3.313,0.952l0,2.187l1.364,0l0,-2.251c2.23,-0.368 3.421,-1.971 3.421,-3.681c0,-1.927 -1.126,-3.053 -3.356,-3.962c-1.884,-0.78 -2.685,-1.342 -2.685,-2.469c0,-0.866 0.628,-1.862 2.295,-1.862c1.386,0 2.273,0.476 2.728,0.736l0.541,-1.429c-0.628,-0.368 -1.516,-0.715 -2.815,-0.758l0,-2.1l-1.343,0z"/>
    <path id="svg_30" d="m-0.23616,15.29727c0,8.264 6.724,14.987 14.987,14.987c2.947,0 5.69,-0.867 8.01,-2.342l1.801,1.801l-1.016,1.016l2.695,2.695l3.139,3.139l4.646,-4.646l-3.139,-3.139l0,0l-2.695,-2.695l-1.016,1.016l-1.551,-1.55c2.542,-2.687 4.113,-6.301 4.113,-10.283c0.001,-8.263 -6.723,-14.986 -14.986,-14.986s-14.988,6.723 -14.988,14.987zm29.617,19.882l-1.725,-1.725l3.231,-3.231l1.725,1.725l-3.231,3.231zm0.093,-6.37l-3.231,3.231l-1.281,-1.281l3.231,-3.231l1.281,1.281zm-4.557,-0.127l-1.317,-1.317c0.458,-0.337 0.896,-0.699 1.313,-1.085l1.203,1.202l-1.199,1.2zm3.822,-13.385c0,7.713 -6.274,13.987 -13.987,13.987s-13.988,-6.274 -13.988,-13.987c0,-7.712 6.275,-13.987 13.988,-13.987s13.987,6.275 13.987,13.987z"/>
    <path id="svg_31" d="m-8.03116,5.25627l0,38.054l50.355,0l0,-38.054l-25.178,-17.972l-25.177,17.972zm49.354,37.054l-48.354,0l0,-36.54l24.177,-17.257l24.177,17.257l0,36.54z"/>
    <path id="svg_32" d="m47.11884,5.62527l0,-4.877l-10.315,-7.378l0,-7.902l-6.158,-6.158c0,0 0,5.751 0,9.656l-13.5,-9.656l-29.973,21.438l0,4.877l29.973,-21.438l29.973,21.438zm-58.946,-1.945l0,-2.418l28.973,-20.723l12.918,9.24l1.582,1.131l0,-1.944l0,-7.242l4.158,4.158l0,7.488l0,0.514l0.418,0.299l9.897,7.078l0,2.418l-28.391,-20.305l-0.582,-0.416l-0.582,0.416l-28.391,20.306z"/>
   </g>
  </g>
 </g>
</svg>