<svg width="35" height="35" xmlns="http://www.w3.org/2000/svg">

 <g>
  <title>background</title>
  <rect fill="none" id="canvas_background" height="37" width="37" y="-1" x="-1"/>
 </g>
 <g>
  <title>rei-search logo</title>
  <g id="svg_3" display="none">
   <path id="svg_4" d="m14.01584,22.94727l0,-2.187c-1.256,-0.021 -2.555,-0.411 -3.313,-0.952l0.519,-1.451c0.78,0.519 1.905,0.931 3.118,0.931c1.537,0 2.576,-0.888 2.576,-2.122c0,-1.191 -0.845,-1.928 -2.446,-2.577c-2.209,-0.866 -3.573,-1.862 -3.573,-3.745c0,-1.798 1.277,-3.162 3.269,-3.486l0,-2.187l1.342,0l0,2.1c1.299,0.043 2.187,0.389 2.815,0.758l-0.541,1.429c-0.455,-0.26 -1.342,-0.736 -2.728,-0.736c-1.668,0 -2.295,0.996 -2.295,1.862c0,1.126 0.801,1.689 2.685,2.469c2.23,0.909 3.356,2.035 3.356,3.962c0,1.71 -1.191,3.313 -3.421,3.681l0,2.251l-1.363,0z"/>
   <g id="svg_5" display="inline">
    <g id="svg_6">
     <rect id="svg_7" height="3.335" width="2.695" transform="matrix(0.7071,-0.7071,0.7071,0.7071,-21.6143,41.7129) " y="20.14643" x="42.32341"/>
     <rect id="svg_8" height="3.812" width="6.57" transform="matrix(0.7071,-0.7071,0.7071,0.7071,-22.661,44.2397) " y="22.43443" x="42.91341"/>
     <path id="svg_9" d="m14.75184,-0.18973c-8.001,0 -14.487,6.486 -14.487,14.487c0,8.001 6.486,14.487 14.487,14.487c8.001,0 14.487,-6.486 14.487,-14.487c0,-8.001 -6.486,-14.487 -14.487,-14.487zm0,26.676c-6.732,0 -12.189,-5.457 -12.189,-12.189c0,-6.732 5.457,-12.189 12.189,-12.189c6.732,0 12.189,5.457 12.189,12.189c0,6.732 -5.457,12.189 -12.189,12.189z"/>
     <rect id="svg_10" height="4.439" width="6.57" transform="matrix(0.7071,-0.7071,0.7071,0.7071,-23.8693,47.1569) " y="25.03843" x="45.83041"/>
    </g>
    <g id="svg_11">
     <g id="svg_12">
      <path id="svg_13" d="m17.14584,-10.25773l23.177,16.544l0,35.024l-46.354,0l0,-35.025l23.177,-16.543m0,-2.458l-25.177,17.972l0,38.054l50.355,0l0,-38.054l-25.178,-17.972l0,0z"/>
     </g>
     <path id="svg_14" d="m36.80384,-6.62973l0,-7.902l-6.158,-6.158c0,0 0,5.751 0,9.656l-13.5,-9.656l-29.973,21.438l0,4.877l29.973,-21.438l29.973,21.438l0,-4.877l-10.315,-7.378z"/>
    </g>
   </g>
  </g>
  <g id="svg_15" display="none">
   <g id="svg_16" display="inline">
    <path id="svg_17" d="m17.14584,-12.71573l-25.177,17.972l0,38.054l50.355,0l0,-38.054l-25.178,-17.972l0,0z"/>
    <path id="svg_18" d="m36.80384,-6.62973l0,-7.902l-6.158,-6.158c0,0 0,5.751 0,9.656l-13.5,-9.656l-29.973,21.438l0,4.877l29.973,-21.438l29.973,21.438l0,-4.877l-10.315,-7.378z"/>
   </g>
   <g id="svg_19" display="inline">
    <path id="svg_20" d="m15.44484,13.05327c-1.884,-0.78 -2.685,-1.342 -2.685,-2.469c0,-0.866 0.628,-1.862 2.295,-1.862c1.386,0 2.273,0.476 2.728,0.736l0.541,-1.429c-0.628,-0.368 -1.516,-0.715 -2.815,-0.758l0,-2.1l-1.342,0l0,2.187c-1.992,0.324 -3.269,1.688 -3.269,3.486c0,1.884 1.364,2.88 3.573,3.745c1.602,0.65 2.446,1.386 2.446,2.577c0,1.234 -1.04,2.122 -2.576,2.122c-1.213,0 -2.339,-0.412 -3.118,-0.931l-0.519,1.451c0.758,0.541 2.057,0.931 3.313,0.952l0,2.187l1.364,0l0,-2.251c2.23,-0.368 3.421,-1.971 3.421,-3.681c-0.001,-1.927 -1.127,-3.053 -3.357,-3.962z" fill="#000000"/>
    <path id="svg_21" d="m28.19284,25.11427l-1.37,1.37l-1.888,-1.888c2.656,-2.626 4.304,-6.269 4.304,-10.299c0,-8.001 -6.486,-14.487 -14.487,-14.487c-8.001,0 -14.487,6.486 -14.487,14.487s6.486,14.487 14.487,14.487c2.997,0 5.781,-0.91 8.091,-2.469l2.074,2.074l-1.37,1.37l2.695,2.695l3.139,3.139l4.646,-4.646l-3.139,-3.139l-2.695,-2.694zm-25.63,-10.817c0,-6.732 5.457,-12.189 12.189,-12.189c6.732,0 12.189,5.457 12.189,12.189s-5.457,12.189 -12.189,12.189c-6.732,0 -12.189,-5.457 -12.189,-12.189z" fill="#000000"/>
   </g>
  </g>
  <g stroke="null" id="svg_22">
   <path stroke="null" id="svg_23" d="m15.76994,14.177l0,1.13442c-1.03123,0.16806 -1.69232,0.87558 -1.69232,1.80822c0,0.97725 0.70613,1.49388 1.8497,1.94256c0.82933,0.33716 1.26626,0.71893 1.26626,1.33671c0,0.64009 -0.53839,1.1007 -1.33356,1.1007c-0.62795,0 -1.21087,-0.21371 -1.61415,-0.48292l-0.26868,0.75265c0.39241,0.28062 1.06488,0.48292 1.7151,0.49381l0,1.13442l0.70613,0l0,-1.16761c1.15444,-0.19088 1.77101,-1.02237 1.77101,-1.90937c0,-0.99955 -0.58292,-1.58362 -1.73736,-2.05512c-0.97532,-0.40459 -1.38999,-0.69611 -1.38999,-1.28069c0,-0.4492 0.32511,-0.96584 1.18809,-0.96584c0.71751,0 1.1767,0.24691 1.41225,0.38177l0.28007,-0.74123c-0.32511,-0.19088 -0.78481,-0.37088 -1.45729,-0.39318l0,-1.08929l-0.69525,0z"/>
   <path stroke="null" id="svg_24" d="m8.57254,18.91073c0,4.15019 3.35772,7.51453 7.49973,7.51453c1.55151,0 2.99275,-0.47202 4.18861,-1.28069l1.07368,1.0758l-0.70923,0.71063l1.39517,1.39792l1.62502,1.62823l2.40517,-2.40992l-1.62502,-1.62823l-1.39517,-1.39792l-0.70923,0.71063l-0.97739,-0.97932c1.37498,-1.36213 2.22813,-3.25178 2.22813,-5.34218c0,-4.15019 -3.35772,-7.51453 -7.49973,-7.51453c-4.14202,0.00052 -7.49973,3.36486 -7.49973,7.51505zm13.80982,0c0,3.49195 -2.82502,6.32254 -6.31009,6.32254c-3.48507,0 -6.31009,-2.83059 -6.31009,-6.32254s2.82502,-6.32254 6.31009,-6.32254c3.48507,0 6.31009,2.83059 6.31009,6.32254z"/>
   <path stroke="null" id="svg_25" d="m4.27781,14.22109l0,19.73893l26.06814,0l0,-19.73893l-13.03433,-9.32223l-13.03381,9.32223zm23.99687,17.6641l-21.92612,0l0,-16.59608l10.96306,-7.8408l10.96306,7.8408l0,16.59608z"/>
   <path stroke="null" id="svg_26" d="m32.82826,14.41249l0,-2.52974l-5.33994,-3.82703l0,-4.09883l-3.18792,-3.19421c0,0 0,2.98309 0,5.00865l-6.98878,-5.00865l-15.51664,11.12007l0,2.52974l15.51664,-11.12007l15.51664,11.12007z"/>
  </g>
  <g id="svg_27" display="none">
   <g id="svg_28" display="inline">
    <path id="svg_29" d="m14.16784,6.17127l0,2.187c-1.992,0.324 -3.269,1.689 -3.269,3.486c0,1.884 1.364,2.88 3.573,3.745c1.602,0.65 2.446,1.386 2.446,2.577c0,1.234 -1.04,2.122 -2.576,2.122c-1.213,0 -2.339,-0.412 -3.118,-0.931l-0.519,1.451c0.758,0.541 2.057,0.931 3.313,0.952l0,2.187l1.364,0l0,-2.251c2.23,-0.368 3.421,-1.971 3.421,-3.681c0,-1.927 -1.126,-3.053 -3.356,-3.962c-1.884,-0.78 -2.685,-1.342 -2.685,-2.469c0,-0.866 0.628,-1.862 2.295,-1.862c1.386,0 2.273,0.476 2.728,0.736l0.541,-1.429c-0.628,-0.368 -1.516,-0.715 -2.815,-0.758l0,-2.1l-1.343,0z"/>
    <path id="svg_30" d="m-0.23616,15.29727c0,8.264 6.724,14.987 14.987,14.987c2.947,0 5.69,-0.867 8.01,-2.342l1.801,1.801l-1.016,1.016l2.695,2.695l3.139,3.139l4.646,-4.646l-3.139,-3.139l0,0l-2.695,-2.695l-1.016,1.016l-1.551,-1.55c2.542,-2.687 4.113,-6.301 4.113,-10.283c0.001,-8.263 -6.723,-14.986 -14.986,-14.986s-14.988,6.723 -14.988,14.987zm29.617,19.882l-1.725,-1.725l3.231,-3.231l1.725,1.725l-3.231,3.231zm0.093,-6.37l-3.231,3.231l-1.281,-1.281l3.231,-3.231l1.281,1.281zm-4.557,-0.127l-1.317,-1.317c0.458,-0.337 0.896,-0.699 1.313,-1.085l1.203,1.202l-1.199,1.2zm3.822,-13.385c0,7.713 -6.274,13.987 -13.987,13.987s-13.988,-6.274 -13.988,-13.987c0,-7.712 6.275,-13.987 13.988,-13.987s13.987,6.275 13.987,13.987z"/>
    <path id="svg_31" d="m-8.03116,5.25627l0,38.054l50.355,0l0,-38.054l-25.178,-17.972l-25.177,17.972zm49.354,37.054l-48.354,0l0,-36.54l24.177,-17.257l24.177,17.257l0,36.54z"/>
    <path id="svg_32" d="m47.11884,5.62527l0,-4.877l-10.315,-7.378l0,-7.902l-6.158,-6.158c0,0 0,5.751 0,9.656l-13.5,-9.656l-29.973,21.438l0,4.877l29.973,-21.438l29.973,21.438zm-58.946,-1.945l0,-2.418l28.973,-20.723l12.918,9.24l1.582,1.131l0,-1.944l0,-7.242l4.158,4.158l0,7.488l0,0.514l0.418,0.299l9.897,7.078l0,2.418l-28.391,-20.305l-0.582,-0.416l-0.582,0.416l-28.391,20.306z"/>
   </g>
  </g>
 </g>
</svg>